<svg version="1" xmlns="http://www.w3.org/2000/svg">

  <symbol id="logo" width="185" height="96" viewBox="0 0 185 96" fill="none">
    <path d="M185 0H0L79.8097 90.1011C86.8489 97.9663 98.2503 97.9663 105.289 90.1011L185 0Z" fill="#81B3D3"/>
    <path d="M42.8296 0.696915L92.0043 58.8395L140.882 1.09515L42.8296 0.696915Z" fill="#23A9E1"/>
    <path d="M120.954 17.2237C115.898 17.2237 110.941 17.3233 105.884 17.3233C111.833 10.4537 114.51 11.1506 120.954 17.2237Z" fill="white"/>
    <path d="M80.1072 22.5999C88.9309 22.5999 97.7546 22.5999 106.578 22.5999C104.595 21.4052 99.9357 15.5312 97.358 17.7215C97.1597 17.9207 89.9223 8.86077 85.1635 13.2414C80.9995 17.0246 79.1158 12.7436 74.3569 15.7304C69.1024 19.3145 77.5295 21.4052 80.1072 22.5999Z" fill="white"/>
    <path d="M92.3017 0H41.8382V22.4008L92.0043 83.6298L92.3017 83.2315L142.567 23.0977V0H92.3017ZM54.4293 1.79207H59.8821V18.9163L54.4293 12.4449V1.79207ZM53.6361 11.5489L48.679 5.67488V1.79207H53.6361V11.5489ZM72.7706 8.86077L67.1195 1.79207H72.7706V8.86077ZM66.2272 12.644L60.6752 1.79207H66.2272V12.644ZM60.5761 3.38501L66.0289 14.0379C63.2529 16.1286 61.3692 18.0202 60.5761 18.9163V3.38501ZM67.0204 2.88722L72.5723 9.75681C71.4818 10.3542 70.3912 11.0511 69.4989 11.6484C68.6066 12.2458 67.8135 12.8431 67.0204 13.4405V2.88722ZM73.5638 2.6881L78.3226 6.86959C76.6372 7.5665 75.0509 8.36298 73.5638 9.15945V2.6881ZM79.1158 6.57091L73.7621 1.79207H79.7106V6.37179C79.4132 6.37179 79.314 6.47135 79.1158 6.57091ZM98.052 1.79207H103.009L98.052 4.18149V1.79207ZM92.3017 1.79207H96.664L92.3017 3.88281V1.79207ZM91.4094 3.78325L87.2454 1.79207H91.4094V3.78325ZM85.9566 4.28105L80.9003 1.79207H85.9566V4.28105ZM80.4046 2.38942L85.0643 4.67928C83.478 5.07752 81.8917 5.47576 80.4046 5.97355V2.38942ZM86.7497 2.38942L90.1206 3.98237C88.9309 4.08193 87.8403 4.18149 86.6506 4.38061V2.38942H86.7497ZM97.0606 2.48898V4.38061C95.97 4.18149 94.8794 4.08193 93.6897 3.98237L97.0606 2.48898ZM103.505 2.38942V6.07311C102.018 5.57532 100.431 5.07752 98.746 4.67928L103.505 2.38942ZM104.199 1.79207H110.048L104.695 6.57091C104.496 6.47135 104.397 6.47135 104.199 6.37179V1.79207ZM117.682 1.79207H123.234L117.682 12.644V1.79207ZM111.139 1.79207H116.79L111.139 8.76121V1.79207ZM110.346 2.6881V9.15945C108.859 8.36298 107.272 7.5665 105.587 6.86959L110.346 2.6881ZM116.889 2.88722V13.3409C116.195 12.8431 115.402 12.3453 114.609 11.748C113.617 11.0511 112.428 10.3542 111.238 9.65725L116.889 2.88722ZM123.234 3.38501V18.518C122.144 17.5224 120.359 15.8299 117.781 13.9383L123.234 3.38501ZM124.027 19.3145V1.79207H129.48V13.1418L124.027 19.3145C124.027 19.4141 124.126 19.4141 124.027 19.3145ZM130.273 1.79207H135.23V6.47135L130.273 12.2458V1.79207ZM47.985 1.79207V4.67928L45.5064 1.79207H47.985ZM60.6752 19.9118L60.7744 20.0114C60.7744 20.0114 64.3435 16.1286 69.8955 12.4449C75.1501 8.96033 83.0815 4.8784 92.0043 4.97796C100.828 4.97796 108.958 9.15945 114.113 12.644C119.665 16.3277 123.333 20.111 123.432 20.2105L119.566 24.6907C112.725 25.5867 107.768 30.7638 101.125 29.6687C97.7546 29.0713 97.6554 27.1797 96.664 25.1885C95.97 23.6951 94.7803 23.8942 93.194 23.2969C91.806 22.6995 90.9137 21.6044 88.0386 22.2017C85.56 22.7991 85.2626 26.6819 82.09 26.4828C80.4046 26.3832 80.3055 23.9938 77.926 21.007C71.6801 13.4405 65.8307 14.5356 61.865 21.5048L91.9051 57.2466L60.6752 19.9118ZM135.924 5.47576V1.79207H139.097L135.924 5.47576Z" fill="#491213"/>
    <path d="M87.9394 70.5875L92.0043 64.1161L95.97 70.5875L92.0043 77.0589L87.9394 70.5875Z" fill="#23A9E1"/>
    <path d="M64.9384 32.1576C65.4341 32.755 65.8307 33.4519 65.7315 34.2484C65.6324 34.8457 64.8392 35.8413 65.4341 36.0404C66.1281 35.1444 66.9212 34.1488 67.6152 33.2528C67.0204 33.0537 62.2615 27.4783 62.2615 26.7814C61.171 27.3788 60.1795 27.9761 59.089 28.4739C59.2873 29.1709 60.3778 28.4739 60.9727 28.4739C61.7658 28.5735 62.3607 29.0713 62.9555 29.6687C61.2701 31.0625 57.1061 34.6466 56.6104 34.7462C56.4121 34.7462 55.5198 34.1488 55.5198 34.6466C55.5198 34.9453 56.4121 35.6422 56.5113 35.8413C57.2053 36.7374 57.9984 37.6334 58.6924 38.5294C59.2873 38.2307 58.5933 37.8325 58.8907 37.3347C59.1881 36.9365 63.7487 33.0537 64.9384 32.1576Z" fill="white"/>
    <path d="M59.6838 25.1885C60.0804 25.0889 60.2787 25.5867 60.6752 25.0889C59.8821 24.0933 59.089 23.1973 58.2958 22.2017C57.8992 21.8035 57.5027 21.3057 57.6018 22.2017C57.701 22.7991 51.5541 27.8766 51.1576 27.9761C50.6618 28.1753 50.3644 27.5779 50.067 28.0757C50.761 28.9717 51.5541 29.7682 52.2481 30.6642C52.4464 30.9629 52.7438 31.2616 52.9421 31.5603C53.2395 31.859 53.1404 30.8634 53.1404 30.9629C53.0413 30.4651 53.6361 30.0669 54.0327 29.7682C55.5198 28.4739 59.2872 25.1885 59.6838 25.1885Z" fill="white"/>
    <path d="M50.9593 24.2925C49.1747 24.7903 47.291 24.0933 46.7953 22.3013C46.2996 20.5092 47.3901 18.518 48.8773 17.5224C50.2653 16.5268 52.4464 16.5268 53.2396 18.3189C53.537 19.1154 53.4378 20.0114 53.1404 20.8079C52.9421 21.3057 52.5456 21.8035 53.2396 22.1022C54.1318 21.007 54.925 19.9118 55.8173 18.8167C54.7267 18.2193 54.3301 17.1242 53.537 16.2282C52.6447 15.133 51.455 14.1374 50.067 13.9383C47.1919 13.5401 44.515 16.5268 44.3167 19.1154C44.2176 20.6088 44.7133 21.903 45.5064 23.0977C46.2996 24.0933 47.3901 24.6907 47.8859 25.8854C48.1833 25.985 50.5627 24.8898 51.1576 24.5911C51.0584 24.4916 51.0584 24.392 50.9593 24.2925C50.9593 24.2925 50.2653 24.4916 50.9593 24.2925Z" fill="white"/>
    <path d="M89.9223 60.532C88.7326 59.7355 85.9566 55.8527 85.3617 55.2554C85.2626 55.1558 85.1635 54.9567 85.0643 54.8571C85.0643 54.8571 84.7669 55.0563 84.866 55.0563C84.6677 55.1558 84.9652 55.6536 84.7669 55.9523C83.9737 57.147 79.0166 60.9303 78.8183 61.1294C78.2235 61.5276 77.6286 60.9303 77.3312 61.4281C78.0252 62.3241 80.1072 64.9126 80.3055 65.0122C80.8012 65.1117 80.4046 64.2157 80.5037 64.0166C80.6029 63.6184 83.0815 61.6272 83.9737 60.8307C84.2712 60.532 84.6677 61.2289 84.866 61.5276C85.1634 62.0254 85.3617 62.5232 85.1635 63.1206C85.0643 63.5188 84.4695 64.0166 84.866 64.3153C85.4609 63.6184 87.2454 61.5276 87.4437 61.3285C87.7412 61.0298 86.8489 61.3285 86.948 61.2289C86.5514 61.4281 86.254 61.4281 85.8574 61.2289C85.7583 61.1294 84.7669 60.1338 84.866 60.0342C85.2626 59.636 85.8574 59.0386 86.3532 58.9391C87.2454 58.74 87.9394 60.4325 88.0386 61.0298C88.1377 61.6272 88.1377 62.2245 87.9394 62.8219C87.8403 63.2201 87.4437 63.5188 87.9394 63.7179C88.6334 62.7223 89.3274 61.8263 90.0214 60.8307C90.2197 60.6316 90.0214 60.532 89.9223 60.532C90.1206 60.532 89.8231 60.4325 89.9223 60.532Z" fill="white"/>
    <path d="M79.8098 56.3505C81.9909 54.4589 82.2883 51.273 80.6029 49.0827C78.7192 46.5937 75.2492 45.9964 72.8698 47.9876C70.6886 49.8792 70.3912 52.9655 72.0766 55.2554C74.0595 57.9435 77.2321 58.2422 79.8098 56.3505C79.7106 56.4501 80.9995 55.4545 79.8098 56.3505ZM79.314 51.6712C78.7192 53.1646 77.1329 54.7576 75.6458 55.3549C73.8612 56.0519 72.5724 54.5585 73.2664 52.7664C73.9603 51.273 75.4475 49.6801 76.9346 49.0827C78.8183 48.3858 80.008 49.9787 79.314 51.6712C79.4132 51.4721 78.9175 52.5673 79.314 51.6712Z" fill="white"/>
    <path d="M73.4646 41.8149C73.9603 41.9144 74.3569 42.3127 74.7535 41.8149C74.0595 40.9188 73.2663 40.0228 72.5723 39.2263C71.9775 39.525 72.5724 39.7241 72.3741 40.2219C72.1758 40.6202 69.7964 41.0184 69.2015 41.118C69.3998 40.5206 70.0938 38.5294 70.3912 38.3303C70.8869 37.9321 71.2835 38.7285 71.6801 38.2307C70.7878 37.1356 69.8955 36.0404 69.0032 34.9453C68.7058 34.5471 68.4084 33.9497 68.0118 34.2484C68.0118 34.2484 68.0118 35.7418 67.9127 35.9409C67.8135 36.14 67.0204 39.525 66.0289 40.421C65.5332 40.8193 63.8478 42.3127 63.3521 42.5118C62.8564 42.7109 62.559 41.9144 62.1624 42.5118C62.9555 43.5074 63.8478 44.503 64.6409 45.4986C64.7401 45.5981 65.2358 46.3946 65.4341 46.3946C65.9298 46.4942 65.5332 45.4986 65.5332 45.2995C65.7315 44.9012 68.0118 42.6114 69.0032 42.4122C70.1929 42.2131 71.9775 41.7153 73.4646 41.8149C73.0681 41.8149 73.7621 41.9144 73.4646 41.8149Z" fill="white"/>
    <path d="M67.2187 22.7991C63.253 22.5999 64.8392 18.8167 67.6152 18.0202C70.1929 17.2237 75.6458 19.7127 77.3312 21.4052C74.5552 22.3013 70.9861 22.1021 68.0118 22.3013C67.8135 19.1154 67.0204 20.2105 67.2187 22.7991Z" fill="#DC6243"/>
    <path d="M76.6372 35.244C68.1109 35.1444 73.8612 22.0026 76.7363 22.7991C80.1072 23.8942 79.7106 35.3435 76.6372 35.244Z" fill="#DC6243"/>
    <path d="M82.6849 30.9629C81.8918 33.4519 80.3055 33.9497 80.5038 30.8634C80.702 27.3788 82.9823 28.1753 85.3617 26.881C87.3446 25.7858 88.4352 21.7039 91.9052 24.0933C93.4914 25.1885 95.276 24.2925 95.7717 25.8854C95.7717 25.7858 91.3103 36.14 93.7889 36.14C88.8317 36.14 91.0129 30.266 92.8966 26.2836C91.112 27.1797 88.1377 32.9541 90.5172 33.8501C89.2283 35.5426 85.3617 37.733 83.3789 36.14C81.8917 35.0449 82.6849 32.9541 82.6849 30.9629Z" fill="#DC6243"/>
    <path d="M86.7497 40.5206C83.2797 41.5162 78.7192 39.3259 84.2712 38.2307C87.7412 37.5338 91.4094 38.9277 86.7497 40.5206C86.6506 40.5206 86.8489 40.5206 86.7497 40.5206Z" fill="#DC6243"/>
    <path d="M91.112 40.421C90.418 38.7285 91.7068 36.8369 93.7888 38.2307C95.5734 39.4255 92.8966 41.3171 91.112 40.421Z" fill="#DC6243"/>
    <path d="M88.1377 45.0008C85.7583 44.3039 77.7278 44.4034 82.9823 42.2131C84.6677 41.6158 93.0949 42.4122 88.1377 45.0008Z" fill="#DC6243"/>
    <path d="M98.5477 48.2862C97.1597 47.0915 95.6725 46.992 94.3837 48.2862C92.5991 45.0008 86.1549 46.0959 83.0815 45.5981C84.6677 49.6801 97.7545 50.4765 98.5477 48.2862Z" fill="#DC6243"/>
    <path d="M96.664 50.7752C93.4914 50.6757 90.0214 50.1779 87.1463 50.8748C89.03 51.3726 93.4914 52.6668 89.3274 53.762C90.8146 55.9523 93.2931 55.7532 94.8794 53.8615C94.1854 53.5629 93.888 53.1646 93.2931 52.7664C94.8794 52.4677 96.4657 51.5717 96.664 50.7752Z" fill="#DC6243"/>
    <path d="M100.233 46.8924C94.9786 43.8061 96.2674 41.5162 100.63 39.3259C102.91 38.2307 107.867 34.1488 109.949 35.4431C106.677 39.3259 103.406 43.1092 100.233 46.8924Z" fill="#DC6243"/>
    <path d="M96.4657 39.6246C92.0043 35.0449 103.108 35.4431 104.893 33.8501C106.182 34.2484 115.6 25.5867 117.88 26.1841C116.195 28.0757 112.725 34.2484 110.147 34.2484C108.165 34.2484 106.182 33.9497 104.695 35.3435C102.513 37.4343 98.8451 38.4299 96.4657 39.6246Z" fill="#F49774"/>
    <path d="M97.9529 34.0493C95.4743 35.3435 93.194 30.1664 97.4571 30.6642C100.233 30.9629 103.108 30.4651 105.686 30.8634C103.703 33.1532 101.026 34.4475 97.9529 34.0493Z" fill="#F4B1A4"/>
    <path d="M110.445 52.2686C110.643 52.866 110.742 53.5629 110.643 54.2598C110.544 55.1558 109.652 57.147 108.462 56.5496C107.272 55.9523 106.281 54.8571 105.289 53.9611C106.083 53.0651 106.777 52.2686 108.165 52.6668C108.561 52.7664 108.859 52.6668 108.462 52.3682C108.065 52.169 105.389 50.377 105.19 50.5761C104.893 50.8748 105.686 51.4721 105.389 52.0695C105.19 52.4677 104.794 52.866 104.496 53.2642C103.802 52.6668 102.613 51.9699 103.406 50.9743C103.901 50.2774 104.695 49.7796 105.488 49.6801C106.083 49.5805 107.272 50.0783 107.471 49.4809C106.38 48.9831 105.289 48.4853 104.199 47.888C104.397 48.6845 100.927 52.3682 100.134 53.3638C100.035 53.4633 99.44 53.9611 99.44 54.1602C99.44 54.5585 100.035 54.2598 100.134 54.2598C100.63 54.0607 106.876 59.3373 107.074 59.7355C107.173 60.0342 106.876 60.3329 107.074 60.4325C107.074 60.4325 107.272 60.6316 107.371 60.6316C107.768 60.1338 111.833 54.658 112.725 54.4589C111.932 53.2642 111.139 52.0695 110.346 50.7752C109.751 51.0739 110.346 51.7708 110.445 52.2686Z" fill="white"/>
    <path d="M104.298 58.9391C102.216 57.6448 98.746 60.2333 98.2503 60.4325C97.2588 60.9303 96.4657 59.9347 96.9614 58.9391C97.4571 58.1426 98.3494 57.7444 99.2417 57.6448C99.5391 57.6448 100.531 57.8439 100.729 57.6448C100.828 57.4457 100.927 57.4457 100.729 57.3461C99.8366 56.7488 99.0434 56.1514 98.1511 55.6536C97.9528 56.7488 96.7631 57.3461 96.0691 58.043C95.276 58.9391 94.582 59.9347 94.582 61.2289C94.582 62.3241 95.276 63.3197 96.2674 63.917C97.358 64.5144 98.5477 64.0166 99.5391 63.4192C100.134 63.021 100.828 62.5232 101.423 62.2245C102.414 61.7267 103.703 62.125 103.406 63.5188C103.108 64.6139 102.018 65.6095 101.026 65.8087C100.431 66.0078 99.7374 65.9082 99.1426 65.7091C98.746 65.6095 98.1511 65.0122 97.9528 65.6095C99.1426 66.406 100.233 67.302 101.423 68.0985C101.522 67.302 101.919 67.0034 102.513 66.5056C103.207 65.9082 103.901 65.2113 104.496 64.4148C105.686 62.7223 106.083 60.3329 104.298 58.9391Z" fill="white"/>
    <path d="M104.298 58.9391C105.289 59.5364 103.703 58.4413 104.298 58.9391V58.9391Z" fill="white"/>
    <path d="M140.683 19.5136C139.989 20.2105 132.355 17.2237 131.76 16.726C131.463 16.6264 131.463 15.4317 131.066 15.9295C130.67 16.4273 130.273 16.9251 129.877 17.4229C129.48 17.9207 129.084 18.4185 128.588 18.9163C128.29 19.2149 128.092 19.4141 128.588 19.6132C129.381 19.2149 133.942 26.881 133.545 28.0757C132.851 28.4739 126.704 22.9982 126.506 22.6995C126.407 22.5999 126.803 21.7039 126.308 21.8035C126.109 21.8035 125.614 22.6995 125.415 22.8986C125.118 23.2969 124.82 23.5955 124.523 23.9938C124.82 24.4916 125.019 23.9938 125.514 23.9938C125.911 24.0933 127.299 25.288 127.696 25.6863C127.002 25.6863 125.019 25.7858 124.82 25.7858C123.928 25.8854 124.424 25.0889 123.829 24.8898C123.036 25.7858 122.342 26.6819 121.549 27.6775C121.152 28.1753 120.656 28.7726 120.26 29.2704C120.161 29.37 120.26 29.2704 120.26 29.37C120.557 29.6687 120.359 29.5691 120.855 29.37C121.35 29.1709 127.398 34.2484 127.596 34.5471C127.993 34.9453 127.398 35.5426 127.993 35.7418C128.588 35.0449 129.183 34.2484 129.778 33.5515C129.877 33.4519 129.877 33.4519 129.778 33.3523C129.381 32.9541 129.282 33.5515 128.786 33.5515C128.29 33.4519 124.424 30.1664 122.937 28.9717C124.721 28.8722 130.174 28.6731 131.066 28.6731C131.364 28.6731 132.157 29.5691 132.157 29.8678C132.058 30.266 131.661 30.4651 132.256 30.6642C132.752 30.0669 133.248 29.5691 133.743 28.9717L133.942 28.6731C134.041 28.5735 134.041 28.5735 134.14 28.3744L134.338 28.1753C134.735 27.6775 136.123 26.1841 135.924 26.0845C135.429 25.6863 135.23 26.5823 134.636 25.985C134.338 25.7858 133.446 24.1929 133.248 23.7947C132.95 23.3964 133.842 22.8986 134.239 22.6995C135.032 22.2017 137.412 21.5048 137.709 22.9982C137.709 23.2969 137.412 23.496 137.61 23.6951C137.61 23.6951 137.808 23.8942 137.907 23.8942C138.106 23.6951 140.287 21.1066 141.179 19.9118C140.882 19.7127 140.782 19.6132 140.683 19.5136ZM133.347 21.7039C133.446 21.7039 133.545 21.6044 133.347 21.7039C133.049 21.903 132.653 22.2017 132.355 22.5004C131.86 21.6044 131.364 20.7083 130.769 19.8123C131.959 20.3101 133.148 20.8079 134.239 21.3057C134.041 21.4052 133.743 21.5048 133.347 21.7039Z" fill="white"/>
    <path d="M123.73 32.8545C121.35 30.8634 118.178 31.4607 116.195 33.651C114.311 35.9409 114.51 39.3259 116.79 41.2175C119.07 43.1092 122.441 42.6114 124.325 40.4211C126.208 38.1312 126.109 34.7462 123.73 32.8545ZM123.432 39.4255C123.432 39.4255 123.432 39.525 123.432 39.4255C122.144 40.7197 120.062 39.525 118.971 38.7285C117.88 37.9321 115.898 36.14 117.087 34.6466C118.178 33.3523 120.161 34.4475 121.251 35.1444C122.441 35.9409 124.622 37.733 123.532 39.3259C123.631 39.2263 123.631 39.2263 123.432 39.4255Z" fill="white"/>
    <path d="M123.73 32.8546C124.92 33.8501 123.432 32.6554 123.73 32.8546V32.8546Z" fill="white"/>
    <path d="M123.432 39.5255C123.432 39.4255 123.432 39.4255 123.432 39.5255C123.532 39.4255 123.532 39.4255 123.532 39.4255C123.432 39.4255 123.432 39.5255 123.432 39.5255Z" fill="white"/>
    <path d="M117.186 41.9144C117.286 42.014 117.484 42.2131 117.186 41.9144C114.311 39.7241 110.941 40.3215 108.759 43.0096C107.768 44.2043 106.777 45.399 105.785 46.5937C106.182 47.0915 106.578 46.4942 107.074 46.7928C107.471 47.0915 113.221 51.8704 113.32 52.169C113.518 52.6668 113.023 52.6668 113.419 53.0651C113.617 53.1646 117.88 47.888 118.277 46.8924C119.169 45.1003 118.574 43.2087 117.186 41.9144ZM115.898 48.6845C115.699 48.9832 115.898 48.784 115.204 49.3814C114.906 49.6801 108.859 44.7021 109.057 44.503C109.85 43.607 111.635 42.91 112.626 43.2087C114.807 43.7065 117.781 46.3946 115.898 48.6845Z" fill="white"/>
  </symbol>

  <symbol id="heroImage" viewBox="0 0 461 350" fill="none" >
    <path fill-rule="evenodd" clip-rule="evenodd" d="M165.739 69.9996L165.539 70.1996C164.134 71.6996 162.529 72.3996 161.024 72.3996L163.833 67.4996C165.639 64.3996 163.933 61.3996 161.124 61.3996C158.817 61.3996 157.011 62.2996 155.305 65.2996L153.8 67.8996L152.596 69.9996L152.396 70.1996C150.189 72.6996 148.082 74.6996 146.778 74.6996C146.075 74.6996 145.774 74.1996 146.477 73.0996L152.897 61.8996H155.305L156.208 60.4996H153.7L156.509 55.5996H153.499L150.69 60.4996H147.981L147.078 61.8996H149.787L143.768 72.2996C142.463 74.4996 143.366 76.5996 145.774 76.5996C147.48 76.5996 149.486 75.2996 151.292 73.4996C151.292 77.2996 156.609 78.0996 159.82 73.9996H160.522C162.328 73.9996 165.137 72.8996 166.642 71.0996C166.642 70.5996 166.141 70.1996 165.739 69.9996ZM159.318 70.1996H159.218C158.215 70.1996 157.412 70.9996 157.412 71.9996C157.412 72.3996 157.512 72.6996 157.713 72.9996V73.0996C156.309 75.4996 152.897 75.0996 154.603 71.8996L156.91 67.9996L158.315 65.5996C160.422 61.9996 163.331 63.3996 161.525 66.4996L159.318 70.1996ZM207.375 69.9996L207.174 70.1996C204.967 72.6996 202.258 74.6996 200.151 74.6996C198.345 74.6996 197.242 73.4996 198.546 71.0996L198.847 70.5996C200.753 71.3996 204.465 70.9996 206.672 67.0996L207.074 66.3996C208.679 63.5996 207.174 61.5996 204.666 61.5996C202.258 61.5996 200.352 62.8996 199.048 65.0996L196.138 70.0996L195.938 70.2996C193.73 72.7996 191.623 74.7996 190.319 74.7996C189.617 74.7996 189.316 74.2996 190.018 73.1996L194.332 65.5996C195.637 63.2996 194.433 61.6996 192.727 61.6996C191.423 61.6996 190.018 62.3996 188.513 63.9996L193.329 55.6996H190.319L181.992 69.9996L181.791 70.1996C179.584 72.6996 177.477 74.6996 176.173 74.6996C175.471 74.6996 175.17 74.1996 175.872 73.0996L182.293 61.8996H184.701L185.604 60.4996H183.096L185.905 55.5996H182.895L180.086 60.4996H177.377L176.474 61.8996H179.183L173.163 72.2996C171.859 74.4996 172.762 76.5996 175.17 76.5996C176.374 76.5996 177.678 75.9996 178.982 74.9996L178.18 76.2996H181.19L185.704 68.3996C190.319 62.5996 192.326 63.3996 191.122 65.5996L187.209 72.3996C185.905 74.5996 186.808 76.6996 189.216 76.6996C191.022 76.6996 193.028 75.2996 194.834 73.4996C194.934 75.3996 196.539 76.6996 198.947 76.6996C202.358 76.6996 205.77 74.0996 208.177 71.1996C208.278 70.5996 207.776 70.1996 207.375 69.9996ZM201.656 65.7996C203.362 62.7996 206.472 63.2996 204.666 66.3996L204.265 67.0996C202.86 69.4996 200.854 69.4996 199.75 69.0996L201.656 65.7996ZM316.63 70.2L316.831 70C317.332 70.1 317.834 70.6 317.934 71.1C315.727 73.7 312.717 76.1 309.607 76.5H309.507C309.206 76.6 309.005 76.6 308.704 76.6C305.895 76.6 305.394 74.2 305.394 74.2L307.3 73.2C307.3 73.2 307.701 74.3 308.704 74.3C310.627 74.3 310.972 71.8542 311.333 69.3006C311.518 67.9902 311.707 66.6513 312.115 65.6C311.763 66.0472 311.369 66.5659 310.942 67.1299C310.03 68.3315 308.962 69.7389 307.801 71.1C305.293 74 302.484 76.6 299.976 76.6C298.07 76.6 297.066 75.3 297.367 73.7C295.963 75.1 294.057 76.6 292.451 76.6C290.746 76.6 290.044 75.2 290.846 73.1C289.743 73.7 288.438 74 287.535 74H286.833C283.623 78.1 278.205 77.3 278.305 73.4C276.299 75.2 273.791 76.6 271.383 76.6C268.875 76.6 267.37 75.3 267.27 73.4C264.761 75.8 262.354 77.2 259.946 78L257.638 81.9C255.431 85.6 251.017 85 251.017 82.1C251.017 79.9 253.625 78.2 257.638 77L258.34 75.8C257.237 76.4 256.234 76.8 255.431 76.8C253.725 76.8 252.823 75.8 252.823 74.4C251.217 75.8 249.512 76.8 248.007 76.8C245.599 76.8 244.696 74.7 246 72.5L249.211 67C249.512 66.4 249.411 65.8 249.01 65.3L248.609 64.8C246.201 68 244.997 69.5 243.592 71.2C242.088 73 239.278 74.1 237.473 74.1H236.77C233.56 78.2 228.243 77.4 228.243 73.6C225.734 75.9 223.427 77.4 221.019 78.1L218.712 82C216.504 85.7 212.09 85.1 212.09 82.2C212.09 80 214.698 78.3 218.712 77.1L219.514 75.7C218.411 76.3 217.407 76.7 216.605 76.7C214.197 76.7 213.294 74.6 214.598 72.4L218.812 65.1C220.016 62.9 222.323 61.6 223.929 61.6C225.734 61.6 227.039 63.3 227.039 64.5H228.845L222.123 76C224.53 75 226.637 73.2 229.145 70.3L229.346 70.1L230.55 68L232.055 65.4C233.76 62.4 235.566 61.5 237.874 61.5C240.683 61.5 242.389 64.5 240.583 67.6L237.774 72.5C239.278 72.5 240.884 71.8 242.288 70.3L242.489 70.1C244.495 67.8 246.301 65.3 247.606 63.4L247.305 63.1C246.301 61.7 246.402 60 248.107 58.5L249.712 60.2C249.11 60.7 249.11 61.4 249.512 61.9L251.217 63.9C252.12 65.1 252.622 66.2 251.619 68L248.609 73.2C247.907 74.3 248.208 74.8 248.91 74.8C250.214 74.8 252.321 72.8 254.528 70.3L254.729 70.1L257.638 65.1C258.842 62.9 261.15 61.6 262.755 61.6C264.561 61.6 265.865 63.3 265.865 64.5H267.671L260.949 76C263.357 75 265.464 73.2 267.972 70.3L268.172 70.1L271.082 65.1C272.386 62.9 274.292 61.6 276.7 61.6C279.208 61.6 280.713 63.6 279.108 66.4L278.707 67.1C276.5 71 272.788 71.4 270.881 70.6L270.58 71.1C269.276 73.5 270.38 74.7 272.186 74.7C274.292 74.7 277.001 72.7 279.208 70.2L279.409 70L280.613 67.9L282.118 65.3C283.823 62.3 285.629 61.4 287.937 61.4C290.746 61.4 292.451 64.4 290.646 67.5L287.836 72.4C289.341 72.4 290.947 71.7 292.351 70.2L292.552 70L297.267 61.9H300.277L294.458 72.1C294.431 72.1478 294.402 72.1975 294.372 72.2487C293.967 72.9466 293.402 73.9205 294.057 74.2C294.659 74.4 296.364 73.3 298.672 71.2L303.989 61.9H306.999L300.578 73.1C299.876 74.2 300.177 74.7 300.879 74.7C302.183 74.7 304.29 72.7 306.497 70.2L306.698 70C309.296 67.0408 311.807 63.4831 313.123 61.62C313.23 61.4683 313.329 61.3279 313.42 61.2L315.627 62.4C314.48 64.7455 314.132 67.2356 313.819 69.4789V69.479C313.611 70.9658 313.418 72.3441 313.018 73.5C314.222 72.6 315.527 71.5 316.63 70.2ZM276.801 66.4C278.606 63.3 275.496 62.8 273.791 65.8L271.885 69.1C272.988 69.5 274.995 69.5 276.399 67.1L276.801 66.4ZM214.799 81.5C214.799 82.4 215.802 82.5 216.404 81.4L217.809 78.9C215.501 79.8 214.799 80.7 214.799 81.5ZM217.508 73.1C216.805 74.2 217.106 74.7 217.809 74.7C219.013 74.7 220.919 73.3 222.725 70.4L225.032 66.4C226.537 63.7 223.327 63 221.721 65.8L217.508 73.1ZM236.168 70.2H236.269L238.476 66.5C240.282 63.4 237.372 62 235.265 65.6L233.861 68L231.553 71.9C229.848 75.1 233.259 75.5 234.663 73.1V73C234.463 72.7 234.362 72.4 234.362 72C234.362 71 235.165 70.2 236.168 70.2ZM253.525 81.5C253.525 82.4 254.528 82.5 255.13 81.4L256.535 78.9C254.227 79.8 253.525 80.7 253.525 81.5ZM256.234 73.1C255.531 74.2 255.832 74.7 256.535 74.7C257.739 74.7 259.645 73.3 261.451 70.4L263.758 66.4C265.263 63.7 262.053 63 260.447 65.8L256.234 73.1ZM286.031 70.2H286.131L288.338 66.5C290.144 63.4 287.234 62 285.128 65.6L283.723 68L281.416 71.9C279.71 75.1 283.121 75.5 284.526 73.1V73C284.325 72.7 284.225 72.4 284.225 72C284.225 71 285.027 70.2 286.031 70.2ZM130.525 66.7998H101.53V68.7998H130.525V66.7998ZM329.271 66.7998H358.266V68.7998H329.271V66.7998Z" fill="#766458"/>
    <path fill-rule="evenodd" clip-rule="evenodd" d="M163.532 0H171.257L170.053 44.9H155.506L153.499 26.4L151.493 44.9H136.845L135.742 0H143.367L143.968 37.2H144.771L149.687 0H157.312L162.228 37.2H163.03L163.532 0ZM195.436 37.2V45H174.468V0H195.436V7.7H182.093V18.5H192.727V26.2H182.093V37.1H195.436V37.2ZM216.906 45V37.2H206.171V0H198.546V45H216.906ZM233.159 28.4L240.884 26.6V40.2C240.884 42.8 238.677 44.9 236.169 44.9H224.631C222.023 44.9 219.916 42.7 219.916 40.2V4.7C219.916 2.1 222.023 0 224.631 0H236.169C238.677 0 240.884 2.1 240.884 4.7V13.8L233.159 15.6V7.6H227.641V37.1H233.159V28.4ZM266.467 4.7C266.467 2.1 264.26 0 261.752 0H250.214C247.606 0 245.499 2.1 245.499 4.7V40.1C245.499 42.6 247.606 44.8 250.214 44.8H261.752C264.26 44.8 266.467 42.7 266.467 40.1V4.7ZM253.224 7.7H258.742V37.2H253.224V7.7ZM291.549 0H299.173V44.9H291.549V22.8L288.439 34.2H280.914L277.904 22.8V44.9H270.279V0H277.904L284.726 21.7L291.549 0ZM323.954 45V37.2V37.1H310.611V26.2H321.245V18.5H310.611V7.7H323.954V0H302.986V45H323.954Z" fill="#81B3D3"/>
    <path fill-rule="evenodd" clip-rule="evenodd" d="M246.101 215.7C270.179 215.7 287.636 198.6 287.636 174.4C287.636 151.8 267.671 135.9 246.101 135.9C224.531 135.9 204.566 151.8 204.566 174.4C204.566 198.6 222.022 215.7 246.101 215.7ZM246 196.8C234.363 196.8 224.832 187.4 224.832 174.5C224.832 164.2 234.463 154.7 246 154.7C257.638 154.7 267.169 164.2 267.169 174.5C267.169 187.4 257.638 196.8 246 196.8ZM31.5025 152.6C36.3182 152.6 40.8329 154.6 44.4446 157.6L52.1698 142.6C45.5482 138.8 36.2178 136.4 28.6934 136.4C13.6444 136.4 2.80914 146.3 2.80914 161.5C2.80914 176 10.8353 179.1 23.0751 182.7C23.315 182.769 23.5661 182.839 23.8261 182.912L23.8288 182.913L23.8303 182.913L23.8316 182.913C28.1382 184.119 34.9136 186.016 34.9136 191.2C34.9136 196.4 30.0979 198.7 25.4829 198.7C18.761 198.7 13.0424 195.3 8.12644 191L0 206.5C7.62481 211.8 16.9552 215 26.3859 215C33.9103 215 41.7358 213 47.6551 208C53.5743 203 55.3802 195.3 55.3802 187.9C55.3802 175.8 47.2538 170.6 36.8198 167.5L31.8035 166C28.4927 165 23.1754 163.3 23.1754 158.9C23.1754 154.7 27.8908 152.6 31.5025 152.6ZM91.899 167.3V154.8L115.175 154.9V138.4H72.4357V213.2H115.175V196.7H91.899V183.8H113.87V167.3H91.899ZM129.622 138.4H157.312C178.18 138.4 195.436 154.8 195.436 175.8C195.436 196.8 178.079 213.2 157.312 213.2H129.622V138.4ZM149.185 196.7H153.6C165.238 196.7 175.17 190.3 175.17 175.8C175.17 162.4 166.341 154.9 153.8 154.9H149.185V196.7ZM297.97 138.4H317.533L353.249 184.2H353.45V138.4H373.014V213.2H353.45L317.734 167.3H317.533V213.2H297.97V138.4ZM403.212 213.2L408.429 200.2H435.317L440.233 213.2H461L432.708 138.4H411.439L382.545 213.2H403.212ZM421.873 161.5H422.073L430.1 185.3H413.847L421.873 161.5Z" fill="white"/>
    <path fill-rule="evenodd" clip-rule="evenodd" d="M80.4617 277.6C80.4617 277.9 80.3614 278.2 80.2611 278.5L80.261 278.5C80.1607 278.8 79.9601 279.1 79.7594 279.3C79.5588 279.5 79.2578 279.7 78.9568 279.9C78.6558 280 78.2545 280.1 77.8532 280.1C77.3516 280.1 76.9503 280 76.549 279.8L76.5488 279.8C76.1476 279.6 75.7463 279.4 75.4454 279.1C75.2072 278.863 75.0947 278.625 74.9587 278.338L74.9587 278.338C74.9228 278.263 74.8853 278.184 74.8434 278.1C74.7431 277.7 74.6428 277.3 74.6428 276.8C74.6428 275.9 74.8434 275.2 75.1444 274.4C75.4454 273.7 75.8467 273 76.4486 272.5L76.4487 272.5L76.4487 272.5C76.6494 272.3 76.9503 272 77.2512 271.8C77.5522 271.6 77.8532 271.4 78.1542 271.3C78.3431 271.237 78.4925 271.135 78.6272 271.043L78.6272 271.043C78.7071 270.988 78.7818 270.937 78.8565 270.9C78.9331 270.862 78.9951 270.838 79.0481 270.818C79.1338 270.786 79.1958 270.762 79.2578 270.7L80.6623 272.7C80.6016 272.73 80.5316 272.761 80.4553 272.794C80.2794 272.87 80.0696 272.961 79.8597 273.1C79.5588 273.2 79.2578 273.4 78.9568 273.6C78.6558 273.8 78.4552 274.1 78.2545 274.4C78.0539 274.7 77.9535 275 77.9535 275.4C78.6558 275.4 79.1575 275.6 79.6591 276C80.261 276.3 80.4617 276.9 80.4617 277.6ZM88.3875 277.6C88.3875 277.9 88.2872 278.2 88.1869 278.5L88.1868 278.5C88.0865 278.8 87.8859 279.1 87.6852 279.3C87.4845 279.5 87.1836 279.7 86.8826 279.9C86.5816 280 86.1803 280.1 85.779 280.1C85.2774 280.1 84.8761 280 84.4748 279.8L84.4746 279.8C84.0734 279.6 83.6721 279.4 83.3712 279.1L83.3711 279.1C83.1705 278.8 82.9698 278.5 82.7692 278.1C82.6689 277.7 82.5686 277.3 82.5686 276.8C82.5686 275.9 82.7692 275.2 83.0702 274.4C83.3712 273.7 83.7725 273 84.3744 272.5L84.3745 272.5L84.3745 272.5C84.5752 272.3 84.8761 272 85.177 271.8C85.478 271.6 85.779 271.4 86.08 271.3C86.2689 271.237 86.4183 271.135 86.553 271.043C86.6329 270.988 86.7076 270.937 86.7823 270.9C86.8589 270.862 86.9209 270.838 86.9739 270.818C87.0596 270.786 87.1216 270.762 87.1836 270.7L88.5881 272.7C88.5274 272.73 88.4574 272.761 88.3811 272.794C88.2052 272.87 87.9954 272.961 87.7855 273.1C87.4846 273.2 87.1836 273.4 86.8826 273.6L86.8826 273.6C86.5816 273.8 86.381 274.1 86.1803 274.4C85.9796 274.7 85.8793 275 85.8793 275.4C86.5816 275.4 87.0832 275.6 87.5849 276C88.0865 276.3 88.3875 276.9 88.3875 277.6ZM364.085 296.1L364.386 295.8C364.676 295.916 365.033 296.165 365.36 296.393L365.36 296.394C365.599 296.56 365.822 296.716 365.991 296.8C362.781 300.4 359.169 303.8 356.059 303.8C354.152 303.8 352.949 302.8 352.748 301.3C350.842 302.8 348.936 303.8 347.431 303.8C345.123 303.8 343.919 302.4 344.12 300.5C341.913 302.4 339.705 303.8 337.699 303.8C334.589 303.8 333.485 301.2 335.09 298.4L340.006 289.8C341.712 287 339.104 286 333.285 293.3L327.466 303.4H323.653L325.058 301C323.152 302.7 321.145 303.8 319.339 303.8C317.433 303.8 316.229 302.8 316.028 301.3C314.122 302.8 312.216 303.8 310.711 303.8C308.504 303.8 307.4 302.5 307.4 300.8C305.394 302.6 303.287 303.8 301.381 303.8C298.271 303.8 297.167 301.2 298.772 298.4L302.785 291.4C303.287 290.6 303.086 289.8 302.585 289.2L302.083 288.6L301.615 289.228L301.614 289.229C299.017 292.711 297.675 294.511 296.063 296.4C296.102 296.477 296.125 296.538 296.146 296.591L296.146 296.591C296.178 296.677 296.202 296.739 296.264 296.8C292.05 301.7 288.138 304.4 284.225 305.6L281.315 310.6C278.607 315.3 272.988 314.5 272.988 310.9C272.988 308 276.199 306 281.315 304.4L282.319 302.7C281.215 303.4 279.811 303.9 278.205 303.9C272.788 303.9 272.286 298.8 274.995 294.2L276.099 292.2C272.988 290.6 271.283 287.7 271.283 284.7C271.283 282.1 272.487 279.5 275.196 277.6L276.4 279.8C274.794 281.1 273.992 282.8 273.992 284.6C273.992 286.7 275.196 288.8 277.403 290L283.322 279.8C285.028 276.9 287.536 275.4 289.643 275.4C301.581 275.4 295.06 293.5 281.516 293.5C280.714 293.5 280.011 293.4 279.309 293.3L279.309 293.3L278.205 295.2C275.898 299.1 276.399 301.7 279.008 301.7C282.018 301.7 284.325 299.1 286.332 295.6L286.733 294.9H290.445L285.63 303.1C288.639 301.8 291.348 299.5 294.458 295.9L294.157 295.6C296.385 293.024 298.376 290.211 299.988 287.933L299.996 287.922C300.196 287.639 300.39 287.365 300.578 287.1L300.277 286.7C298.973 285 299.073 282.8 301.28 280.9L303.287 283.1C302.585 283.8 302.585 284.6 303.086 285.3L305.193 287.9C306.397 289.4 306.999 290.7 305.695 293L301.882 299.6C300.979 301.1 301.481 301.7 302.284 301.7C303.989 301.7 306.698 299.2 309.407 296L309.608 295.8L313.32 289.5C314.925 286.7 317.834 285.1 319.841 285.1C322.349 285.1 323.954 287.3 323.854 288.9H325.76L319.64 299.6C318.737 301.1 319.239 301.7 320.042 301.7C321.747 301.7 324.456 299.2 327.165 296L327.466 295.7C327.666 295.7 327.767 295.8 327.867 295.9L333.987 285.4H337.799L336.395 287.9C338.301 286 340.107 285.1 341.712 285.1C343.819 285.1 345.324 287.2 343.719 290.1L338.201 299.7C337.298 301.2 337.799 301.8 338.602 301.8C340.307 301.8 343.016 299.3 345.725 296.1L346.026 295.8C346.026 295.8 346.126 295.9 346.227 295.9L349.939 289.5C351.544 286.7 354.453 285.1 356.46 285.1C358.065 285.1 359.269 286 359.971 287.1L365.59 277.5H369.402L356.56 299.7C355.657 301.2 356.159 301.8 356.962 301.8C358.667 301.8 361.376 299.3 364.085 296.1ZM289.643 278.8C288.639 278.8 287.335 279.7 286.231 281.6L280.714 291.1H281.516C291.448 291.1 295.662 278.8 289.643 278.8ZM275.998 310.4C275.998 311.4 277.302 311.6 278.105 310.2L279.811 307.2C276.901 308.3 275.998 309.4 275.998 310.4ZM311.815 301.7C313.32 301.7 315.627 300 317.935 296.4L320.944 291.2C322.851 287.8 318.737 286.9 316.731 290.4L311.413 299.6C310.51 301.1 311.012 301.7 311.815 301.7ZM348.534 301.7C350.139 301.7 352.447 300 354.754 296.2L357.664 291.2C359.57 287.8 355.457 286.9 353.45 290.4L348.133 299.6C347.23 301.1 347.732 301.7 348.534 301.7ZM108.955 275.5C116.479 275.5 115.977 285.1 108.252 287.7C115.576 292.6 110.259 306.2 98.9219 306.2C85.5785 306.2 83.1707 291.6 91.1968 286.5L92.7017 288.4C88.9896 290.8 88.2873 296.2 90.8958 299.8C91.4011 299.213 91.765 298.625 92.1656 297.978C92.2422 297.855 92.3202 297.729 92.4007 297.6L102.634 279.9C104.34 277 106.848 275.5 108.955 275.5ZM93.3036 302C94.8085 302.8 96.5141 303.3 98.8216 303.3C108.052 303.3 111.563 290.2 102.634 288.3L101.631 288.2L95.2098 299.3C94.6079 300.3 94.0059 301.2 93.3036 302ZM106.045 280.7L102.935 286C106.848 285.9 108.955 285.1 110.459 282.3C112.366 278.7 108.854 275.9 106.045 280.7ZM143.567 304.1C141.059 304.1 139.855 302.2 140.457 300C137.748 302.3 134.638 304.1 131.428 304.3C128.217 304.3 126.211 302.3 126.311 299.7C123.602 302.3 120.191 304.3 116.88 304.3C112.366 304.3 110.259 300.5 112.667 296.5L116.68 289.7C118.285 286.9 120.693 285.3 123.803 285.3C126.913 285.3 128.819 287.9 126.813 291.4L126.311 292.3C123.402 297.2 118.787 297.7 116.379 296.7L115.977 297.4C114.272 300.4 115.676 301.9 117.984 301.9C120.693 301.9 124.204 299.4 126.913 296.2L127.214 295.9C127.264 295.95 127.314 295.975 127.365 296C127.415 296.025 127.465 296.05 127.515 296.1L131.327 289.6C132.933 286.8 135.34 285.2 138.451 285.2C141.561 285.2 143.467 287.8 141.46 291.3L140.959 292.2H137.849L138.35 291.3C140.658 287.4 136.745 286.7 134.538 290.5L130.625 297.3C128.92 300.3 130.324 301.8 132.632 301.8C135.34 301.8 138.852 299.3 141.561 296.1L141.862 295.8C142.062 295.9 142.263 296 142.464 296.2L146.276 289.6C147.881 286.8 150.791 285.2 152.797 285.2C155.305 285.2 156.911 287.4 156.81 289H159.018L152.898 299.7C151.995 301.2 152.496 301.8 153.299 301.8C155.004 301.8 157.713 299.3 160.422 296.1L160.723 295.8C160.773 295.85 160.823 295.875 160.874 295.9C160.924 295.925 160.974 295.95 161.024 296L167.044 285.6H170.856L163.432 298.5L163.4 298.55C162.894 299.357 162.046 300.708 162.93 301.1C163.633 301.4 165.84 299.9 168.749 297.3L175.471 285.5H179.283L171.157 299.7C170.254 301.2 170.756 301.8 171.558 301.8C173.264 301.8 175.973 299.3 178.682 296.1L178.782 295.9L178.682 295.8C181.502 292.492 184.323 288.569 186.123 286.066C186.499 285.542 186.831 285.081 187.109 284.7L189.918 286.2C188.444 289.138 187.985 292.376 187.575 295.272L187.575 295.272C187.315 297.107 187.074 298.804 186.607 300.2C188.112 299.2 189.818 297.7 191.222 296.1L191.523 295.8H191.624L195.336 289.5C196.941 286.7 199.349 285.1 202.459 285.1C205.569 285.1 207.475 287.7 205.469 291.2L204.967 292.1C202.058 297 197.443 297.5 195.035 296.5L194.633 297.2C192.928 300.2 194.332 301.7 196.64 301.7C199.349 301.7 202.86 299.2 205.569 296L205.87 295.7C206.372 295.9 206.974 296.5 207.275 297C204.164 300.6 199.85 304 195.536 304C192.426 304 190.52 302.2 190.42 299.7C188.012 301.8 185.303 303.5 182.494 303.9H182.394C181.992 304 181.691 304 181.29 304C177.779 304 177.076 300.9 177.076 300.9L179.484 299.7C179.484 299.7 179.986 301.1 181.29 301.1C183.683 301.1 184.138 297.982 184.611 294.744C184.851 293.095 185.096 291.416 185.604 290.1C185.178 290.647 184.714 291.267 184.217 291.933L184.216 291.933C183.075 293.461 181.754 295.229 180.287 296.9C180.287 296.95 180.312 296.975 180.337 297C180.362 297.025 180.387 297.05 180.387 297.1C177.177 300.7 173.565 304.1 170.455 304.1C168.047 304.1 166.843 302.5 167.244 300.5C165.438 302.2 163.131 304.1 161.024 304.1C159.118 304.1 158.215 302.7 158.616 300.7C156.409 302.7 154.202 304.1 152.195 304.1C150.289 304.1 149.085 303.1 148.885 301.6C146.978 303.1 145.072 304.1 143.567 304.1ZM202.459 291.2C204.766 287.3 200.854 286.6 198.646 290.4L196.239 294.6C197.643 295.1 200.151 295.2 201.957 292.1L202.459 291.2ZM149.587 290.5L144.27 299.7C143.367 301.2 143.868 301.7 144.671 301.8C146.176 301.8 148.483 300.1 150.791 296.5L153.801 291.3C155.707 287.9 151.593 287 149.587 290.5ZM123.803 291.2C126.11 287.3 122.198 286.6 119.991 290.4L117.583 294.6C118.987 295.1 121.495 295.2 123.301 292.1L123.803 291.2ZM249.01 304.1C253.324 304.1 257.638 300.7 260.749 297.1C260.448 296.6 259.846 296 259.344 295.8L259.043 296.1C256.334 299.3 252.823 301.8 250.114 301.8C247.806 301.8 246.402 300.3 248.107 297.3L248.509 296.6C250.916 297.6 255.531 297.1 258.441 292.2L258.943 291.3C260.949 287.8 259.043 285.2 255.933 285.2C252.823 285.2 250.415 286.8 248.81 289.6L245.098 295.9C245.098 295.9 244.997 295.9 244.997 295.8L244.696 296.1C241.987 299.3 239.279 301.8 237.573 301.8C236.77 301.8 236.269 301.2 237.172 299.7L242.69 290.1C244.295 287.2 242.79 285.1 240.683 285.1C239.078 285.1 237.272 286 235.366 288L241.486 277.5H237.573L226.838 296C226.788 295.95 226.713 295.9 226.638 295.85L226.637 295.85L226.637 295.85C226.562 295.8 226.487 295.75 226.437 295.7L226.136 296C223.427 299.2 220.718 301.7 219.013 301.7C218.21 301.7 217.708 301.1 218.611 299.6L226.738 285.4H229.848L230.952 283.6H227.841L231.453 277.4H227.641L224.029 283.6H220.618L219.514 285.4H223.026L215.401 298.6C213.796 301.4 214.899 304 218.009 304C219.916 304 221.922 302.8 224.029 301L222.524 303.6H226.337L232.155 293.6C237.974 286.3 240.583 287.2 238.978 290L234.062 298.6C232.456 301.4 233.56 304 236.67 304C238.978 304 241.586 302.2 243.994 299.8C243.994 302.3 245.9 304.1 249.01 304.1ZM252.12 290.4C254.328 286.6 258.24 287.3 255.933 291.2L255.431 292.1C253.625 295.2 251.117 295.1 249.713 294.6L252.12 290.4ZM237.272 331.8L236.971 332.1C234.262 335.3 231.554 337.8 229.848 337.8C229.045 337.8 228.544 337.2 229.447 335.7L234.965 326.1C236.57 323.2 235.065 321.1 232.958 321.1C231.353 321.1 229.547 322 227.641 323.9L229.045 321.4H225.233L219.113 332C219.013 331.95 218.938 331.9 218.862 331.85L218.862 331.85C218.787 331.8 218.712 331.75 218.611 331.7L218.31 332C216.605 333.9 214.498 334.8 212.592 334.8L216.204 328.6C218.511 324.6 216.404 320.9 212.793 320.9C209.883 320.9 207.576 322.1 205.368 325.9L203.462 329.1L201.857 331.9C201.807 331.85 201.757 331.825 201.706 331.8C201.656 331.775 201.606 331.75 201.556 331.7L201.255 332C198.145 335.6 195.436 337.9 192.426 339.2L202.86 321.4H199.048L192.326 333.1C189.416 335.8 187.109 337.3 186.407 337C185.522 336.608 186.37 335.257 186.877 334.45L186.908 334.4L194.332 321.5H190.52L184.4 332C184.35 331.95 184.3 331.925 184.25 331.9C184.199 331.875 184.149 331.85 184.099 331.8L183.798 332.1C181.089 335.3 178.381 337.8 176.675 337.8C175.872 337.8 175.371 337.2 176.274 335.7L181.792 326.1C183.397 323.2 181.892 321.1 179.785 321.1C178.18 321.1 176.374 322 174.468 323.9L175.872 321.4H172.06L165.94 331.9C165.84 331.8 165.739 331.7 165.539 331.7L165.238 332C162.529 335.2 159.82 337.7 158.115 337.7C157.312 337.7 156.81 337.1 157.713 335.6L163.833 324.9H161.626C161.726 323.3 160.121 321.1 157.613 321.1C155.606 321.1 152.697 322.7 151.092 325.5L147.179 332.3L147.179 332.3C146.878 332.1 146.577 331.9 146.376 331.8L146.075 332.1C143.367 335.3 139.956 337.8 136.243 337.8C133.635 337.8 132.03 335.2 134.337 331.3L135.441 329.4L135.441 329.4C136.143 329.5 136.845 329.6 137.648 329.6C141.661 329.6 146.276 327.5 149.286 322.3C150.389 320.4 150.791 318.7 150.791 317.2C150.791 313.8 148.584 311.5 145.774 311.5C143.668 311.5 141.159 313 139.454 315.9L133.535 326.1C131.327 324.9 130.124 322.8 130.124 320.7C130.124 318.9 130.926 317.2 132.531 315.9L131.327 313.7C128.619 315.6 127.415 318.2 127.415 320.8C127.415 323.8 129.12 326.7 132.23 328.3L131.127 330.3C128.418 334.9 130.023 340 135.441 340C139.655 340 142.865 338.1 145.473 335.6C144.671 338 145.875 340 148.584 340C150.088 340 151.995 339 153.901 337.5C154.102 339 155.305 340 157.212 340C159.018 340 161.024 338.9 162.93 337.2L161.526 339.6H165.338L171.157 329.5C176.976 322.2 179.584 323.2 177.879 326L172.963 334.6C171.358 337.4 172.461 340 175.571 340C177.578 340 179.885 338.6 182.093 336.6C181.591 338.7 182.594 340 184.5 340C186.306 340 188.413 338.5 190.119 336.9L188.012 340.5C182.895 342 179.584 344.1 179.584 347C179.584 350.6 185.203 351.4 187.912 346.7L190.821 341.7C194.031 340.7 197.142 338.7 200.452 335.5C199.951 340.8 206.974 342 211.288 336.6H212.09C213.495 336.6 215.401 336.1 217.107 335.1L214.598 339.5H218.411L224.23 329.4C230.049 322.1 232.657 323.1 230.952 325.9L226.036 334.5C224.43 337.3 225.534 339.9 228.644 339.9C231.754 339.9 235.366 336.5 238.576 332.9C238.476 332.6 237.774 332 237.272 331.8ZM142.564 317.6C143.668 315.7 144.972 314.8 145.975 314.8C147.38 314.8 148.082 315.7 148.082 317.1C148.082 320.6 143.768 327 137.849 327H137.046L142.564 317.6ZM156.008 332.4C153.7 336 151.393 337.7 149.888 337.7C149.085 337.7 148.584 337.1 149.487 335.6L154.804 326.4C156.81 322.9 160.924 323.8 159.018 327.2L156.008 332.4ZM184.902 346.2C184.099 347.6 182.795 347.4 182.795 346.4C182.795 345.4 183.698 344.3 186.607 343.2L184.902 346.2ZM210.585 332H210.385C209.181 332 208.177 333 208.177 334.3C208.177 334.8 208.278 335.2 208.579 335.6V335.7C206.773 338.8 202.459 338.2 204.666 334.2L207.576 329.2L209.381 326.1C212.09 321.6 215.702 323.4 213.394 327.3L210.585 332ZM324.055 331.8C324.556 331.9 325.258 332.5 325.459 333.1C322.65 336.4 318.737 339.5 314.925 340.2H314.824C314.423 340.3 314.122 340.3 313.721 340.3H313.721C310.209 340.3 309.507 337.2 309.507 337.2L311.915 336C311.915 336 312.417 337.4 313.721 337.4C316.114 337.4 316.569 334.283 317.042 331.044V331.044C317.282 329.396 317.527 327.716 318.035 326.4C317.624 326.928 317.178 327.523 316.698 328.165L316.697 328.166L316.697 328.166L316.697 328.166C315.538 329.716 314.178 331.533 312.617 333.3C309.407 336.9 305.795 340.3 302.685 340.3C299.575 340.3 298.973 338.6 298.973 335.4V332.4L294.659 339.9H290.846L292.953 336.2C290.245 338.5 287.235 340.2 284.125 340.2C281.014 340.2 279.008 338.3 279.008 335.8C276.5 338.3 273.891 340.2 271.483 340.2C269.076 340.2 267.872 338.6 268.273 336.6C266.467 338.3 264.16 340.2 262.053 340.2C260.448 340.2 259.545 339.2 259.545 337.7C257.739 339 255.833 339.8 253.926 340.1H253.826C253.425 340.2 253.124 340.2 252.722 340.2C249.603 340.2 248.701 337.754 248.538 337.208C247.611 338.356 246.819 339.315 246.302 339.9C246.207 339.825 246.109 339.749 246.009 339.673C245.583 339.346 245.141 339.006 244.897 338.6C248.408 334.6 257.137 323 258.742 320.8L261.551 322.3C260.077 325.239 259.618 328.476 259.208 331.372C258.948 333.207 258.707 334.904 258.24 336.3C258.547 336.038 258.893 335.757 259.251 335.465L259.251 335.464C259.713 335.088 260.196 334.694 260.648 334.3L268.072 321.6H271.885L264.461 334.5L264.429 334.55C263.923 335.357 263.075 336.709 263.959 337.1C264.661 337.4 266.868 335.9 269.778 333.3L276.5 321.5H280.312L272.186 335.7C271.283 337.2 271.784 337.8 272.587 337.8C274.293 337.8 277.001 335.3 279.71 332.1L280.011 331.8C280.011 331.8 280.112 331.9 280.212 331.9L283.924 325.5C285.529 322.7 287.937 321.1 291.047 321.1C294.157 321.1 296.063 323.7 294.057 327.2L293.555 328.1H290.445L290.947 327.2C293.254 323.3 289.342 322.6 287.134 326.4L283.222 333.2C281.516 336.2 282.921 337.7 285.228 337.7C287.937 337.7 291.448 335.2 294.157 332L294.458 331.7C294.659 331.8 294.96 332 295.16 332.2L305.996 313.4H309.808L304.391 322.8C308.303 319.2 314.022 321.2 310.51 327.3L309.507 329.1C307.701 332.2 304.892 333.9 302.183 333.6V335.2C302.183 337 302.986 337.8 303.789 337.8C305.494 337.8 308.203 335.3 310.912 332.1L311.213 331.8C314.034 328.493 316.854 324.569 318.654 322.066C319.031 321.543 319.362 321.081 319.64 320.7L322.449 322.2C320.975 325.139 320.516 328.376 320.106 331.272C319.846 333.107 319.605 334.804 319.138 336.2C320.643 335.2 322.349 333.7 323.754 332.1L324.055 331.8ZM248.702 337.004L250.917 335.9C250.917 335.9 251.418 337.3 252.722 337.3C255.116 337.3 255.571 334.183 256.043 330.944C256.284 329.296 256.529 327.616 257.036 326.3C256.056 327.654 251.727 333.249 248.702 337.004ZM301.28 328.2L300.177 330.1C301.08 332.6 304.391 331.2 305.494 329.2L307.3 326.1C308.705 323.8 305.695 322.1 301.28 328.2ZM325.359 335.7C324.155 335.7 323.152 336.7 323.152 337.9C323.152 339.1 324.055 340.1 325.359 340.1C326.563 340.1 327.566 339.2 327.566 337.9C327.566 336.7 326.563 335.7 325.359 335.7ZM329.372 334.2H325.559L337.498 313.5H341.311L329.372 334.2ZM354.554 335.6C354.453 335.9 354.353 336.2 354.353 336.5C354.353 337.2 354.654 337.8 355.156 338.1C355.657 338.5 356.159 338.7 356.861 338.7C356.861 339.1 356.761 339.4 356.56 339.7C356.359 340 356.159 340.3 355.858 340.5C355.557 340.7 355.256 340.9 354.955 341C354.745 341.139 354.535 341.23 354.359 341.306C354.283 341.339 354.213 341.37 354.152 341.4L355.557 343.4C355.619 343.338 355.681 343.315 355.767 343.282C355.82 343.262 355.882 343.238 355.958 343.2C356.033 343.163 356.108 343.112 356.187 343.057C356.322 342.965 356.472 342.863 356.66 342.8C356.961 342.7 357.262 342.5 357.563 342.3C357.864 342.1 358.165 341.8 358.366 341.6C358.968 341.1 359.369 340.4 359.67 339.7C359.971 338.9 360.172 338.2 360.172 337.3C360.172 336.8 360.072 336.4 359.971 336L359.971 336C359.929 335.917 359.892 335.837 359.856 335.762C359.72 335.475 359.607 335.237 359.369 335C359.068 334.7 358.667 334.5 358.266 334.3C357.864 334.1 357.463 334 356.961 334C356.56 334 356.159 334.1 355.858 334.2L355.857 334.2C355.557 334.4 355.256 334.6 355.055 334.8C354.855 335 354.654 335.3 354.554 335.6L354.554 335.6ZM346.728 335.6C346.628 335.9 346.527 336.2 346.527 336.5C346.527 337.2 346.728 337.8 347.33 338.1C347.832 338.5 348.333 338.7 349.036 338.7C349.036 339.1 348.935 339.4 348.735 339.7C348.534 340 348.333 340.3 348.032 340.5L348.032 340.5C347.731 340.7 347.43 340.9 347.129 341C346.828 341.2 346.628 341.3 346.327 341.4L347.731 343.4C347.793 343.338 347.855 343.315 347.941 343.282C347.994 343.262 348.056 343.238 348.133 343.2C348.207 343.163 348.282 343.112 348.362 343.057C348.497 342.965 348.646 342.863 348.835 342.8C349.136 342.7 349.437 342.5 349.738 342.3L349.738 342.3C350.039 342.1 350.34 341.8 350.541 341.6C351.143 341.1 351.544 340.4 351.845 339.7C352.146 338.9 352.346 338.2 352.346 337.3C352.346 336.8 352.246 336.4 352.146 336C351.945 335.6 351.744 335.3 351.544 335C351.243 334.7 350.842 334.5 350.44 334.3C350.039 334.1 349.638 334 349.136 334C348.735 334 348.333 334.1 348.032 334.2L348.032 334.2C347.731 334.4 347.43 334.6 347.23 334.8C347.029 335 346.828 335.3 346.728 335.6Z" fill="white"/>
  </symbol>

  <symbol id="heroImageSmall" viewBox="0 0 457 78" fill="none">
    <path d="M54.5 53C54.5 53.5 54.4 53.9 54.4 54.3C53.9 58.3 52.6 62.2 50.5 65.8C48.4 69.4 45.5 72.2 42 74.2C40.7 74.8 39.3 75.3 37.9 75.8C36.5 76.2 35.1 76.6 33.7 76.9C32.5 77.1 31.4 77.3 30.2 77.4C29 77.5 27.9 77.6 26.8 77.6C26.6 77.6 26.4 77.6 26.2 77.6C26 77.6 25.8 77.6 25.6 77.6C21 77.4 16.4 76.4 11.9 74.5C7.5 72.5 3.5 70 0 66.8L9.3 51.9C9.4 52 9.4 52 9.5 52.1C9.5 52.1 9.6 52.2 9.7 52.3C11.8 54.6 14.2 56.8 16.8 58.7C19.4 60.6 22.5 61.7 25.9 61.9C26 61.9 26.1 61.9 26.2 62C26.3 62 26.4 62.1 26.5 62.1C26.6 62.1 26.7 62.1 26.8 62.2C26.9 62.2 27 62.3 27.1 62.3C27.4 62.3 27.7 62.3 28.1 62.2C28.4 62.2 28.8 62.1 29.1 62C30.3 61.8 31.5 61.3 32.6 60.6C33.7 59.9 34.6 59.1 35.2 58C35.3 57.8 35.4 57.7 35.4 57.5C35.5 57.3 35.6 57.2 35.6 57C35.8 56.5 35.9 56 35.9 55.5C36 55 36 54.6 36 54.2C36 52.1 35.1 50.3 33.3 48.9C31.5 47.5 29.5 46.4 27.4 45.6C26.5 45.3 25.7 45 25 44.8C24.2 44.6 23.5 44.4 22.8 44.3C22.7 44.3 22.6 44.3 22.6 44.2C22.5 44.2 22.4 44.1 22.4 44.1C18.6 43.2 15 41.7 11.7 39.6C8.4 37.5 6.1 34.6 4.8 30.7C4.6 29.9 4.4 29.1 4.2 28.3C4 27.4 3.9 26.6 3.8 25.6C3.7 25.3 3.7 25 3.7 24.7C3.7 24.4 3.7 24.1 3.7 23.8C3.7 23.2 3.7 22.6 3.8 21.9C3.8 21.3 3.9 20.7 4.1 20C4.3 18.5 4.7 16.9 5.3 15.4C5.8 13.9 6.5 12.5 7.4 11.2C9.9 7.1 13.1 4.2 17 2.4C20.7 0.9 24.8 0 29 0C30 0 31 0.1 32.1 0.2C33.1 0.3 34.2 0.5 35.3 0.6C38.1 1.1 40.9 1.8 43.6 2.9C46.3 4 48.9 5.3 51.2 6.7L44.8 21C42.7 19.5 40.5 18.1 38.2 16.9C35.9 15.7 33.4 15.2 30.7 15.2C30.5 15.2 30.4 15.2 30.2 15.2C30 15.2 29.9 15.2 29.7 15.2C27.9 15.4 26.3 16.2 24.7 17.6C23.2 19 22.4 20.4 22.4 22C22.4 22.2 22.4 22.5 22.5 22.7C22.5 22.9 22.6 23.2 22.8 23.4C23 23.9 23.2 24.4 23.6 24.9C24 25.4 24.4 25.8 24.9 26.2C25.8 26.9 27 27.5 28.6 28.1C30.2 28.7 31.9 29.2 33.7 29.8C35.2 30.2 36.6 30.6 38 30.9C39.4 31.2 40.6 31.6 41.5 31.9C45.8 33.4 49.1 36 51.3 39.6C53.5 43.2 54.6 47 54.7 51C54.7 51.2 54.7 51.3 54.7 51.3C54.7 51.4 54.7 51.5 54.7 51.5C54.6 52 54.6 52.5 54.5 53ZM114.5 59.2V75.8H69.1V1.8H114.5V18H89V30.9H113V46.7H89V59.2H114.5ZM191.1 56.3C188.7 61.4 185.3 65.6 180.8 68.8C177.2 71.3 173.2 73 169 73.9C164.7 74.8 160.4 75.4 156.1 75.6C154.9 75.7 153.6 75.7 152.4 75.7C151.2 75.7 150 75.7 148.9 75.7H128.6V1.7H150.2C151.4 1.7 152.5 1.7 153.7 1.7C154.9 1.7 156.1 1.7 157.2 1.8C161.4 2 165.5 2.6 169.6 3.5C173.7 4.4 177.4 6.1 180.8 8.6C185.1 11.6 188.5 15.6 190.9 20.6C193.3 25.6 194.7 30.7 195 35.9C195.1 36.4 195.1 36.8 195.1 37.3C195.1 37.8 195.1 38.2 195.1 38.7C195.1 38.9 195.1 39.2 195.1 39.5C195.1 39.8 195.1 40 195.1 40.3C194.8 45.9 193.5 51.2 191.1 56.3ZM174.7 38C174.7 37.7 174.7 37.4 174.6 37.1C174.4 34.2 173.7 31.3 172.5 28.6C171.3 25.9 169.6 23.7 167.4 22C165.8 20.7 164 19.8 162 19.3C160 18.8 158 18.6 155.9 18.5C155.5 18.5 155.1 18.5 154.7 18.5C154.3 18.5 153.9 18.5 153.5 18.5H148.4V59.3C148.6 59.3 148.9 59.3 149.2 59.4C149.5 59.4 149.7 59.5 150 59.5C150.3 59.5 150.6 59.5 150.8 59.6C151 59.6 151.3 59.7 151.5 59.7C152.3 59.7 153.1 59.7 153.9 59.6C154.8 59.6 155.6 59.5 156.3 59.4C158.3 59.2 160.3 58.9 162.2 58.4C164.1 57.9 165.9 57 167.4 56C169.9 54.2 171.7 51.8 172.9 48.7C174.1 45.6 174.7 42.4 174.7 39.1C174.7 38.6 174.7 38.3 174.7 38ZM284.3 41.9C284.3 42.7 284.2 43.5 284 44.3C283.8 45.9 283.6 47.5 283.1 49.1C282.7 50.7 282.1 52.3 281.5 53.8C278.2 61.3 273.2 67.1 266.3 71.3C259.4 75.4 252.2 77.5 244.6 77.5C244.1 77.5 243.5 77.5 243 77.4C242.5 77.4 242 77.3 241.4 77.3C238.8 77.1 236.2 76.6 233.6 75.9C231 75.2 228.5 74.2 226.1 73C219.6 69.6 214.5 64.7 210.8 58.4C207.1 52.1 205.2 45.5 205.2 38.7C205.2 37.7 205.2 36.7 205.3 35.7C205.4 34.7 205.5 33.6 205.8 32.6C206.2 30.6 206.7 28.6 207.4 26.5C208.1 24.5 208.9 22.5 210 20.6C213.6 14 218.5 9 224.9 5.5C231.2 2 237.9 0.3 244.8 0.3C245.7 0.3 246.7 0.3 247.6 0.4C248.6 0.5 249.5 0.6 250.4 0.6C253.3 1 256.1 1.7 258.9 2.7C261.7 3.7 264.4 5 267 6.6C272.5 10.2 276.8 14.9 279.8 20.8C282.8 26.7 284.3 32.9 284.3 39.3C284.3 40.3 284.3 41.1 284.3 41.9ZM264.1 37.7C264.1 37.2 264 36.8 264 36.3C263.6 33 262.6 29.8 261 26.7C259.4 23.6 257.1 21.2 254.3 19.5C253.5 19.1 252.8 18.8 252 18.5C251.2 18.2 250.5 17.9 249.7 17.7C248.9 17.5 248.2 17.4 247.4 17.3C246.6 17.2 245.9 17.1 245.1 17.1C241.2 17.1 237.5 18.3 234.2 20.8C230.9 23.3 228.5 26.6 227.2 30.7C227.1 30.9 227.1 31 227 31.2C227 31.4 226.9 31.5 226.9 31.7C226.7 32.4 226.5 33.1 226.3 33.8C226.1 34.5 226 35.3 225.8 36.1C225.7 36.6 225.7 37.2 225.6 37.7C225.6 38.2 225.5 38.7 225.5 39.3C225.5 39.6 225.5 39.9 225.5 40.2C225.5 40.5 225.5 40.8 225.6 41.1C225.8 45.2 227.1 49.1 229.4 52.8C231.7 56.5 234.8 58.9 238.9 60.1C239.4 60.3 239.8 60.4 240.3 60.5C240.8 60.6 241.3 60.7 241.8 60.8C242.3 60.9 242.7 60.9 243.2 61C243.7 61 244.1 61.1 244.6 61.1C248.7 61.1 252.4 59.9 255.7 57.4C259 55 261.4 51.7 262.8 47.6C263 46.8 263.2 46 263.4 45.2C263.6 44.3 263.7 43.5 263.8 42.6C263.9 42.1 263.9 41.5 264 41C264 40.5 264.1 40 264.1 39.5C264.1 38.7 264.1 38.2 264.1 37.7ZM351.6 75.8L323.5 37.6C322.7 36.7 322 35.6 321.3 34.3C320.6 33 319.9 31.7 319.3 30.3C318.8 29.3 318.4 28.3 318 27.3C317.6 26.3 317.2 25.4 316.8 24.6C317.2 27 317.5 29.4 317.7 31.9C317.9 34.4 318 36.9 318 39.3V75.8H298.5V1.8H318L345.9 39.8C346.6 40.9 347.3 42 347.9 43.2C348.6 44.4 349.2 45.6 349.8 46.9C350.3 47.9 350.7 48.9 351.2 49.9C351.7 50.9 352.1 51.9 352.6 52.8C352.5 51.9 352.4 51.1 352.3 50.4C352.2 49.6 352.1 48.8 352 48C351.8 46.5 351.7 44.9 351.7 43.2C351.6 41.6 351.6 39.9 351.6 38.2V1.9H371V75.9H351.6V75.8ZM436.7 75.8L433 62.5H404.4L400.6 75.9H380.6L406 1.9H431.2L456.9 75.9H436.7V75.8ZM421.2 23.7C420.8 22.5 420.4 21.3 420.1 20C419.8 18.7 419.5 17.5 419.2 16.2C419 15.7 418.9 15.3 418.9 14.9C418.8 14.5 418.7 14.1 418.7 13.7C418.6 14.1 418.5 14.5 418.4 14.9C418.3 15.3 418.2 15.8 418.1 16.2C418 16.4 418 16.5 418 16.6C418 16.7 418 16.9 417.9 17C417.7 18.2 417.4 19.3 417.1 20.4C416.8 21.5 416.5 22.6 416.2 23.7L408.7 48.2H428.8L421.2 23.7Z" fill="white"/>
  </symbol>



  <symbol id="play" width="48" height="55" viewBox="0 0 48 55" fill="none" >
    <path d="M48 27.0193L0 54.0193L2.42273e-06 0.0192871L48 27.0193Z" fill="white" fill-opacity="0.7"/>
  </symbol>

  <symbol id="vk" width="24" height="24" viewBox="0 0 24 24">
    <path  fill-rule="evenodd" clip-rule="evenodd" d="M23.45 5.948C23.616 5.402 23.45 5 22.655 5H20.03C19.362 5 19.054 5.347 18.887 5.73C18.887 5.73 17.552 8.926 15.661 11.002C15.049 11.604 14.771 11.795 14.437 11.795C14.27 11.795 14.019 11.604 14.019 11.057V5.948C14.019 5.292 13.835 5 13.279 5H9.151C8.734 5 8.483 5.304 8.483 5.593C8.483 6.214 9.429 6.358 9.526 8.106V11.904C9.526 12.737 9.373 12.888 9.039 12.888C8.149 12.888 5.984 9.677 4.699 6.003C4.45 5.288 4.198 5 3.527 5H0.9C0.15 5 0 5.347 0 5.73C0 6.412 0.89 9.8 4.145 14.281C6.315 17.341 9.37 19 12.153 19C13.822 19 14.028 18.632 14.028 17.997V15.684C14.028 14.947 14.186 14.8 14.715 14.8C15.105 14.8 15.772 14.992 17.33 16.467C19.11 18.216 19.403 19 20.405 19H23.03C23.78 19 24.156 18.632 23.94 17.904C23.702 17.18 22.852 16.129 21.725 14.882C21.113 14.172 20.195 13.407 19.916 13.024C19.527 12.533 19.638 12.314 19.916 11.877C19.916 11.877 23.116 7.451 23.449 5.948H23.45Z"/>
  </symbol>

  <symbol id="telegram" width="24" height="24" viewBox="0 0 24 24">
    <path d="M22.4392 4.62225L19.2705 19.566C19.0312 20.6205 18.408 20.883 17.5222 20.3865L12.6937 16.8285L10.3642 19.0695C10.1062 19.3275 9.89099 19.5428 9.39374 19.5428L9.74099 14.6258L18.6892 6.54C19.0785 6.1935 18.6045 6.00075 18.0847 6.348L7.02224 13.314L2.25974 11.823C1.22399 11.4998 1.20524 10.7873 2.47574 10.29L21.1035 3.11325C21.966 2.79 22.7205 3.30525 22.4392 4.623V4.62225Z"/>
  </symbol>

  <symbol id="youtube" width="24" height="24" viewBox="0 0 24 24">
    <path d="M19.1813 5H4.81331C3.30618 5 2 6.3 2 7.8V16.1C2 17.7 3.30618 19 4.81331 19H19.1813C20.7889 19 21.9946 17.7 21.9946 16.2V7.8C22.095 6.3 20.7889 5 19.1813 5ZM9.03326 15.4V8.6L15.8656 12L9.03326 15.4Z"/>
  </symbol>

  <symbol id="htmlacademy" width="36" height="36" viewBox="0 0 36 36">
    <path fill="currentColor" d="M18.1506 2.25H18.0502L4.5 3.58944V27.221L18.0502 34.875L31.5 27.221V3.58944L18.1506 2.25ZM29.5929 13.8266L18.0502 7.32075V7.22507H17.9498L17.8494 7.1294V7.22507L6.40706 13.8266V5.21591L17.9498 4.06782L29.5929 5.21591V13.8266ZM17.9498 8.75587L29.4926 15.1661L24.9758 17.6536L17.8494 13.6353V14.9747L23.7714 18.3233L22.868 18.8017L17.8494 15.9315V17.2709L21.6636 19.4714L20.8606 19.9498L17.8494 18.2276V19.5671L19.7565 20.6195L17.9498 21.6719L6.50743 15.2617L17.9498 8.75587ZM6.40706 16.6968L17.8494 23.2027V24.1595L9.92007 19.6628V21.0022L17.9498 25.5946V26.647L9.92007 22.1503V23.4897L17.9498 28.0821L26.0799 23.3941V18.419L29.4926 16.5055V26.0729L17.9498 32.6745L6.40706 26.1686V16.6968Z"/>
  </symbol>

  <symbol id="cross" width="23" height="22" viewBox="0 0 23 22" fill="none">
    <path d="M23 2.77477L20.0991 0L11.5 8.22522L2.9009 0L0 2.77477L8.5991 11L0 19.2252L2.9009 22L11.5 13.7748L20.0991 22L23 19.2252L14.4009 11L23 2.77477Z" fill="white"/>
  </symbol>

  <symbol id="burger" width="23" height="22" viewBox="0 0 23 22">
    <path d="M22.9 0H0V4H22.9V0Z"/>
    <path d="M22.9 9H0V13H22.9V9Z"/>
    <path d="M22.9 18H0V22H22.9V18Z"/>
  </symbol>

  <symbol id="like" width="22" height="20" viewBox="0 0 22 20">
    <path d="M12.4 3.6L11.8 6.5L11.2 9H13.7H19.9V11C19.9 11 19.9 11 19.9 11.1L17 18H8V8L12.4 3.6ZM2 10V18V10ZM13.2 0L6.6 6.6C6.2 6.9 6 7.4 6 8V18C6 19.1 6.9 20 8 20H17C17.8 20 18.5 19.5 18.8 18.8L21.8 11.7C21.9 11.5 21.9 11.2 21.9 11V9H22C22 7.9 21.1 7 20 7H13.7L14.7 2.4V2.1C14.7 1.7 14.5 1.3 14.3 1L13.2 0ZM4 8H0V20H4V8Z"/>
  </symbol>

</svg>
